<svg width="24" height="21" viewBox="0 0 24 21" fill="none" xmlns="http://www.w3.org/2000/svg">
<path fill-rule="evenodd" clip-rule="evenodd" d="M23.6544 4.60094C23.6544 2.08955 21.6182 0.0533752 19.1068 0.0533752C15.3221 0.0533752 9.24882 0.0533752 5.4641 0.0533752C2.95271 0.0533752 0.916534 2.08955 0.916534 4.60094V19.3805C0.916534 19.841 1.19394 20.2548 1.618 20.431C2.0432 20.6073 2.53206 20.5095 2.85721 20.1843C2.85721 20.1843 5.06732 17.9742 6.40658 16.6361C6.83292 16.2098 7.41048 15.9699 8.01417 15.9699H19.1068C21.6182 15.9699 23.6544 13.9337 23.6544 11.4223V4.60094ZM21.3806 4.60094C21.3806 3.34581 20.3631 2.32716 19.1068 2.32716C15.3221 2.32716 9.24882 2.32716 5.4641 2.32716C4.20898 2.32716 3.19032 3.34581 3.19032 4.60094V16.6361L4.79789 15.0285C5.65056 14.1759 6.80792 13.6961 8.01417 13.6961H19.1068C20.3631 13.6961 21.3806 12.6786 21.3806 11.4223V4.60094ZM6.601 11.4223H15.6961C16.3237 11.4223 16.833 10.913 16.833 10.2854C16.833 9.65784 16.3237 9.14851 15.6961 9.14851H6.601C5.97343 9.14851 5.4641 9.65784 5.4641 10.2854C5.4641 10.913 5.97343 11.4223 6.601 11.4223ZM6.601 6.87473H17.9699C18.5975 6.87473 19.1068 6.3654 19.1068 5.73783C19.1068 5.11027 18.5975 4.60094 17.9699 4.60094H6.601C5.97343 4.60094 5.4641 5.11027 5.4641 5.73783C5.4641 6.3654 5.97343 6.87473 6.601 6.87473Z" fill="#A5A7A7"/>
</svg>
