<svg width="23" height="21" viewBox="0 0 23 21" fill="none" xmlns="http://www.w3.org/2000/svg">
<path fill-rule="evenodd" clip-rule="evenodd" d="M2.01778 10.9278C0.830371 9.72986 0.163559 8.11076 0.163559 6.42265C0.163559 4.72518 0.837388 3.09674 2.03767 1.89646C3.23795 0.696181 4.8664 0.0223389 6.56387 0.0223389C8.26134 0.0223389 9.88979 0.696181 11.0901 1.89646L11.5276 2.33399L11.9651 1.89646C13.1654 0.696181 14.7927 0.0223389 16.4902 0.0223389C18.1888 0.0223389 19.8161 0.696181 21.0164 1.89646C22.2166 3.09674 22.8916 4.72518 22.8916 6.42265C22.8916 8.11076 22.2248 9.72986 21.0362 10.9278L12.3535 20.1217C12.1394 20.3487 11.8399 20.4774 11.5276 20.4774C11.2152 20.4774 10.9158 20.3487 10.7017 20.1217L2.01778 10.9278ZM11.5276 17.6861L19.3867 9.36485L19.4101 9.34146C20.1834 8.56701 20.6186 7.51764 20.6186 6.42265C20.6186 5.32766 20.1834 4.2783 19.4101 3.50385C18.6357 2.7294 17.5851 2.29421 16.4902 2.29421C15.3963 2.29421 14.3458 2.7294 13.5714 3.50385L12.3313 4.74507C11.8868 5.18845 11.1673 5.18845 10.7239 4.74507L9.48267 3.50385C8.70939 2.7294 7.65886 2.29421 6.56387 2.29421C5.46888 2.29421 4.41952 2.7294 3.64507 3.50385C2.87062 4.2783 2.43659 5.32766 2.43659 6.42265C2.43659 7.51764 2.87062 8.56701 3.64507 9.34146C3.65326 9.34965 3.66027 9.35667 3.66729 9.36485L11.5276 17.6861Z" fill="#A5A7A7"/>
</svg>
